# xmcd
#
# Track frame offsets: 
#        150
#        28573
#        44977
#        64215
#        78189
#        97653
#        124779
#        136591
#        156750
#        177582
#        192749
#        202432
#        248613
#        270033
#        290820
#
# Disc length: 4060 seconds
#
# Revision: 1
# Processed by: cddbd v1.5.2PL0 Copyright (c) Steve Scherf et al.
# Submitted via: ExactAudioCopy v1.0b3
#
DISCID=da0fda0f
DTITLE=Various Artist - Time Blues   Vol. 8
DYEAR=2003
DGENRE=Blues
TTITLE0=Adam Holt and The Blues Congregation - The End
TTITLE1=David Deacon - Creepscape
TTITLE2=Tony Leeffler - Finish Line
TTITLE3=Gwyn Ashton - Can't Get My Way Around You
TTITLE4=Popa Chubby - Bad Connection
TTITLE5=Anthony Gomes - Trash Falkin Jive
TTITLE6=Fat Vinny and The Wiseguys - A Different Kind Of Blues
TTITLE7=Nobby Reed Project - Heavy You Heart
TTITLE8=Jealous Bone - Last Time
TTITLE9=Matt Smith - Ashes In The Wind
TTITLE10=Mitch Woods - 10th and Parners Blues
TTITLE11=Matt O'Ree And The Blues Hounds - Theresa
TTITLE12=Blues'N'Trouble - Stay With Me
TTITLE13=The Volker Strifler Band - I Smell Trouble
TTITLE14=Noran Jones And Jools Holland and His Rhythm and Blues Orchestra 
TTITLE14=/ In The Dark
EXTD=
EXTT0=
EXTT1=
EXTT2=
EXTT3=
EXTT4=
EXTT5=
EXTT6=
EXTT7=
EXTT8=
EXTT9=
EXTT10=
EXTT11=
EXTT12=
EXTT13=
EXTT14=
PLAYORDER=
